<mxfile host="Electron" agent="Mozilla/5.0 (Windows NT 10.0; Win64; x64) AppleWebKit/537.36 (KHTML, like Gecko) draw.io/27.0.5 Chrome/134.0.6998.205 Electron/35.3.0 Safari/537.36" version="27.0.5">
  <diagram name="Page-1" id="Zl_I9-IAChLKUPDeEVS-">
    <mxGraphModel dx="3663" dy="1491" grid="1" gridSize="10" guides="1" tooltips="1" connect="1" arrows="1" fold="1" page="1" pageScale="1" pageWidth="1654" pageHeight="1169" math="0" shadow="0">
      <root>
        <mxCell id="0" />
        <mxCell id="1" parent="0" />
        <mxCell id="qYWw9UYQeMKu6ul-sRUe-88" style="edgeStyle=orthogonalEdgeStyle;rounded=0;orthogonalLoop=1;jettySize=auto;html=1;endArrow=block;endFill=1;" parent="1" source="qYWw9UYQeMKu6ul-sRUe-14" target="qYWw9UYQeMKu6ul-sRUe-49" edge="1">
          <mxGeometry relative="1" as="geometry">
            <Array as="points">
              <mxPoint x="370" y="200" />
              <mxPoint x="370" y="200" />
            </Array>
          </mxGeometry>
        </mxCell>
        <mxCell id="qYWw9UYQeMKu6ul-sRUe-102" style="edgeStyle=orthogonalEdgeStyle;rounded=0;orthogonalLoop=1;jettySize=auto;html=1;" parent="1" source="qYWw9UYQeMKu6ul-sRUe-14" target="qYWw9UYQeMKu6ul-sRUe-87" edge="1">
          <mxGeometry relative="1" as="geometry">
            <Array as="points">
              <mxPoint x="770" y="200" />
              <mxPoint x="770" y="200" />
            </Array>
          </mxGeometry>
        </mxCell>
        <mxCell id="qYWw9UYQeMKu6ul-sRUe-105" style="edgeStyle=orthogonalEdgeStyle;rounded=0;orthogonalLoop=1;jettySize=auto;html=1;" parent="1" source="qYWw9UYQeMKu6ul-sRUe-14" target="qYWw9UYQeMKu6ul-sRUe-87" edge="1">
          <mxGeometry relative="1" as="geometry">
            <Array as="points">
              <mxPoint x="780" y="400" />
              <mxPoint x="780" y="400" />
            </Array>
          </mxGeometry>
        </mxCell>
        <mxCell id="qYWw9UYQeMKu6ul-sRUe-110" style="edgeStyle=orthogonalEdgeStyle;rounded=1;orthogonalLoop=1;jettySize=auto;html=1;curved=0;dashed=1;dashPattern=8 8;" parent="1" source="qYWw9UYQeMKu6ul-sRUe-14" target="qYWw9UYQeMKu6ul-sRUe-93" edge="1">
          <mxGeometry relative="1" as="geometry">
            <Array as="points">
              <mxPoint x="560" y="780" />
              <mxPoint x="390" y="780" />
            </Array>
          </mxGeometry>
        </mxCell>
        <mxCell id="qYWw9UYQeMKu6ul-sRUe-140" style="edgeStyle=orthogonalEdgeStyle;rounded=1;orthogonalLoop=1;jettySize=auto;html=1;curved=0;dashed=1;dashPattern=8 8;" parent="1" source="qYWw9UYQeMKu6ul-sRUe-14" target="qYWw9UYQeMKu6ul-sRUe-116" edge="1">
          <mxGeometry relative="1" as="geometry">
            <Array as="points">
              <mxPoint x="630" y="1020" />
            </Array>
          </mxGeometry>
        </mxCell>
        <mxCell id="qYWw9UYQeMKu6ul-sRUe-14" value="&lt;h3&gt;Local Session Service (LSS)&lt;/h3&gt;" style="shape=folder;fontStyle=1;spacingTop=10;tabWidth=40;tabHeight=14;tabPosition=left;html=1;whiteSpace=wrap;connectable=1;allowArrows=1;rotatable=0;fillColor=#ffe6cc;strokeColor=#d79b00;container=1;align=center;verticalAlign=top;recursiveResize=0;" parent="1" vertex="1">
          <mxGeometry x="440" y="40" width="240" height="460" as="geometry">
            <mxRectangle x="320" y="360" width="90" height="40" as="alternateBounds" />
          </mxGeometry>
        </mxCell>
        <mxCell id="qYWw9UYQeMKu6ul-sRUe-12" style="edgeStyle=orthogonalEdgeStyle;rounded=0;orthogonalLoop=1;jettySize=auto;html=1;startArrow=diamondThin;startFill=1;endArrow=open;endFill=0;" parent="qYWw9UYQeMKu6ul-sRUe-14" source="qYWw9UYQeMKu6ul-sRUe-10" target="qYWw9UYQeMKu6ul-sRUe-11" edge="1">
          <mxGeometry relative="1" as="geometry" />
        </mxCell>
        <mxCell id="qYWw9UYQeMKu6ul-sRUe-10" value="&lt;p style=&quot;margin:0px;margin-top:4px;text-align:center;&quot;&gt;&lt;b&gt;Session&lt;/b&gt;&lt;/p&gt;&lt;hr size=&quot;1&quot;&gt;&lt;p style=&quot;margin:0px;margin-left:4px;&quot;&gt;- ID: String&lt;/p&gt;&lt;p style=&quot;margin:0px;margin-left:4px;&quot;&gt;- UserName: String&lt;/p&gt;&lt;p style=&quot;margin:0px;margin-left:4px;&quot;&gt;- ProjectName: String&lt;/p&gt;&lt;p style=&quot;margin:0px;margin-left:4px;&quot;&gt;- CollectionName: String&lt;/p&gt;&lt;p style=&quot;margin:0px;margin-left:4px;&quot;&gt;- Type: String&lt;/p&gt;&lt;p style=&quot;margin:0px;margin-left:4px;&quot;&gt;- UserCredentials: UserCredentials&lt;/p&gt;&lt;p style=&quot;margin:0px;margin-left:4px;&quot;&gt;- DBCredentials: UserCredentials&lt;/p&gt;&lt;p style=&quot;margin:0px;margin-left:4px;&quot;&gt;- Services: Map&amp;lt;ID, Service&amp;gt;&lt;/p&gt;&lt;p style=&quot;margin:0px;margin-left:4px;&quot;&gt;- RequestedServices: StringPair [*]&lt;/p&gt;" style="verticalAlign=top;align=left;overflow=fill;fontSize=12;fontFamily=Helvetica;html=1;fillColor=#e1d5e7;strokeColor=#9673a6;" parent="qYWw9UYQeMKu6ul-sRUe-14" vertex="1">
          <mxGeometry x="20" y="70" width="200" height="170" as="geometry" />
        </mxCell>
        <mxCell id="qYWw9UYQeMKu6ul-sRUe-11" value="&lt;p style=&quot;margin:0px;margin-top:4px;text-align:center;&quot;&gt;&lt;b&gt;Service&lt;/b&gt;&lt;/p&gt;&lt;hr size=&quot;1&quot;&gt;&lt;p style=&quot;margin:0px;margin-left:4px;&quot;&gt;- Name: String&lt;/p&gt;&lt;p style=&quot;margin:0px;margin-left:4px;&quot;&gt;- URL: String&lt;/p&gt;&lt;p style=&quot;margin:0px;margin-left:4px;&quot;&gt;- ID: ServiceID&lt;/p&gt;&lt;p style=&quot;margin:0px;margin-left:4px;&quot;&gt;- Type: String&lt;/p&gt;&lt;p style=&quot;margin:0px;margin-left:4px;&quot;&gt;- Visible: Boolean&lt;/p&gt;" style="verticalAlign=top;align=left;overflow=fill;fontSize=12;fontFamily=Helvetica;html=1;fillColor=#e1d5e7;strokeColor=#9673a6;" parent="qYWw9UYQeMKu6ul-sRUe-14" vertex="1">
          <mxGeometry x="20" y="320" width="200" height="120" as="geometry" />
        </mxCell>
        <mxCell id="qYWw9UYQeMKu6ul-sRUe-13" value="*" style="text;html=1;align=center;verticalAlign=middle;whiteSpace=wrap;rounded=0;fontStyle=1;connectable=0;allowArrows=0;" parent="qYWw9UYQeMKu6ul-sRUe-14" vertex="1">
          <mxGeometry x="120" y="280" width="40" height="40" as="geometry" />
        </mxCell>
        <mxCell id="qYWw9UYQeMKu6ul-sRUe-52" value="has" style="text;html=1;align=center;verticalAlign=middle;whiteSpace=wrap;rounded=0;fontStyle=2;fontSize=11;connectable=0;allowArrows=0;" parent="qYWw9UYQeMKu6ul-sRUe-14" vertex="1">
          <mxGeometry x="80" y="260" width="40" height="40" as="geometry" />
        </mxCell>
        <mxCell id="qYWw9UYQeMKu6ul-sRUe-128" style="edgeStyle=orthogonalEdgeStyle;rounded=0;orthogonalLoop=1;jettySize=auto;html=1;" parent="1" source="qYWw9UYQeMKu6ul-sRUe-17" target="qYWw9UYQeMKu6ul-sRUe-125" edge="1">
          <mxGeometry relative="1" as="geometry">
            <Array as="points">
              <mxPoint x="1680" y="820" />
              <mxPoint x="1680" y="820" />
            </Array>
          </mxGeometry>
        </mxCell>
        <mxCell id="qYWw9UYQeMKu6ul-sRUe-131" style="edgeStyle=orthogonalEdgeStyle;rounded=0;orthogonalLoop=1;jettySize=auto;html=1;" parent="1" source="qYWw9UYQeMKu6ul-sRUe-17" target="qYWw9UYQeMKu6ul-sRUe-116" edge="1">
          <mxGeometry relative="1" as="geometry">
            <Array as="points">
              <mxPoint x="1500" y="830" />
              <mxPoint x="1500" y="830" />
            </Array>
          </mxGeometry>
        </mxCell>
        <mxCell id="qYWw9UYQeMKu6ul-sRUe-134" style="edgeStyle=orthogonalEdgeStyle;rounded=0;orthogonalLoop=1;jettySize=auto;html=1;" parent="1" source="qYWw9UYQeMKu6ul-sRUe-17" target="qYWw9UYQeMKu6ul-sRUe-116" edge="1">
          <mxGeometry relative="1" as="geometry">
            <Array as="points">
              <mxPoint x="1360" y="850" />
              <mxPoint x="1360" y="850" />
            </Array>
          </mxGeometry>
        </mxCell>
        <mxCell id="qYWw9UYQeMKu6ul-sRUe-17" value="&lt;h3&gt;Local Directory Service (LDS)&lt;/h3&gt;" style="shape=folder;fontStyle=1;spacingTop=10;tabWidth=40;tabHeight=14;tabPosition=left;html=1;whiteSpace=wrap;connectable=1;allowArrows=1;rotatable=0;fillColor=#ffe6cc;strokeColor=#d79b00;container=1;align=center;verticalAlign=top;recursiveResize=0;" parent="1" vertex="1">
          <mxGeometry x="1322.5" y="40" width="520" height="740" as="geometry">
            <mxRectangle x="640" y="480" width="90" height="40" as="alternateBounds" />
          </mxGeometry>
        </mxCell>
        <mxCell id="qYWw9UYQeMKu6ul-sRUe-36" style="edgeStyle=orthogonalEdgeStyle;rounded=0;orthogonalLoop=1;jettySize=auto;html=1;endArrow=open;endFill=0;startArrow=diamondThin;startFill=1;" parent="qYWw9UYQeMKu6ul-sRUe-17" source="qYWw9UYQeMKu6ul-sRUe-16" target="qYWw9UYQeMKu6ul-sRUe-21" edge="1">
          <mxGeometry relative="1" as="geometry">
            <Array as="points">
              <mxPoint x="60" y="270.00000000000006" />
              <mxPoint x="60" y="270.00000000000006" />
            </Array>
          </mxGeometry>
        </mxCell>
        <mxCell id="qYWw9UYQeMKu6ul-sRUe-40" style="edgeStyle=orthogonalEdgeStyle;rounded=1;orthogonalLoop=1;jettySize=auto;html=1;curved=0;endArrow=open;endFill=0;startArrow=diamondThin;startFill=1;" parent="qYWw9UYQeMKu6ul-sRUe-17" source="qYWw9UYQeMKu6ul-sRUe-16" target="qYWw9UYQeMKu6ul-sRUe-18" edge="1">
          <mxGeometry relative="1" as="geometry">
            <Array as="points">
              <mxPoint x="140" y="290.00000000000006" />
            </Array>
          </mxGeometry>
        </mxCell>
        <mxCell id="qYWw9UYQeMKu6ul-sRUe-46" style="edgeStyle=orthogonalEdgeStyle;rounded=1;orthogonalLoop=1;jettySize=auto;html=1;curved=0;endArrow=open;endFill=0;startArrow=diamondThin;startFill=1;" parent="qYWw9UYQeMKu6ul-sRUe-17" source="qYWw9UYQeMKu6ul-sRUe-16" target="qYWw9UYQeMKu6ul-sRUe-20" edge="1">
          <mxGeometry relative="1" as="geometry">
            <Array as="points">
              <mxPoint x="140" y="630.0000000000001" />
            </Array>
          </mxGeometry>
        </mxCell>
        <mxCell id="qYWw9UYQeMKu6ul-sRUe-16" value="&lt;p style=&quot;margin:0px;margin-top:4px;text-align:center;&quot;&gt;&lt;b&gt;ServiceManager&lt;/b&gt;&lt;/p&gt;&lt;hr size=&quot;1&quot;&gt;&lt;p style=&quot;margin:0px;margin-left:4px;&quot;&gt;- Services: Map&amp;lt;SessionInfo, Service[*]&amp;gt;&lt;/p&gt;&lt;p style=&quot;margin:0px;margin-left:4px;&quot;&gt;- RequestedServices: RequestedService[*]&lt;/p&gt;&lt;p style=&quot;margin:0px;margin-left:4px;&quot;&gt;- IniServices: InitService[*]&lt;/p&gt;&lt;p style=&quot;margin:0px;margin-left:4px;&quot;&gt;- StoppingServices: Service[*]&lt;/p&gt;" style="verticalAlign=top;align=left;overflow=fill;fontSize=12;fontFamily=Helvetica;html=1;fillColor=#e1d5e7;strokeColor=#9673a6;" parent="qYWw9UYQeMKu6ul-sRUe-17" vertex="1">
          <mxGeometry x="20" y="390.33" width="240" height="120" as="geometry" />
        </mxCell>
        <mxCell id="qYWw9UYQeMKu6ul-sRUe-26" style="edgeStyle=orthogonalEdgeStyle;rounded=1;orthogonalLoop=1;jettySize=auto;html=1;curved=0;startArrow=diamondThin;startFill=1;endArrow=open;endFill=0;jumpStyle=none;" parent="qYWw9UYQeMKu6ul-sRUe-17" source="qYWw9UYQeMKu6ul-sRUe-18" target="qYWw9UYQeMKu6ul-sRUe-21" edge="1">
          <mxGeometry relative="1" as="geometry">
            <Array as="points">
              <mxPoint x="140" y="250.00000000000009" />
            </Array>
          </mxGeometry>
        </mxCell>
        <mxCell id="qYWw9UYQeMKu6ul-sRUe-28" style="edgeStyle=orthogonalEdgeStyle;rounded=0;orthogonalLoop=1;jettySize=auto;html=1;endArrow=open;endFill=0;startArrow=diamondThin;startFill=1;" parent="qYWw9UYQeMKu6ul-sRUe-17" source="qYWw9UYQeMKu6ul-sRUe-18" target="qYWw9UYQeMKu6ul-sRUe-22" edge="1">
          <mxGeometry relative="1" as="geometry" />
        </mxCell>
        <mxCell id="qYWw9UYQeMKu6ul-sRUe-18" value="&lt;p style=&quot;margin:0px;margin-top:4px;text-align:center;&quot;&gt;&lt;b&gt;RequestedService&lt;/b&gt;&lt;/p&gt;&lt;hr size=&quot;1&quot;&gt;&lt;p style=&quot;margin:0px;margin-left:4px;&quot;&gt;- Session: SessionInfo&lt;/p&gt;&lt;p style=&quot;margin:0px;margin-left:4px;&quot;&gt;- Service : ServiceInfo&lt;/p&gt;&lt;p style=&quot;margin:0px;margin-left:4px;&quot;&gt;- StartAttempt: UInt&lt;/p&gt;" style="verticalAlign=top;align=left;overflow=fill;fontSize=12;fontFamily=Helvetica;html=1;fillColor=#e1d5e7;strokeColor=#9673a6;" parent="qYWw9UYQeMKu6ul-sRUe-17" vertex="1">
          <mxGeometry x="320" y="229.99999999999997" width="160" height="80.33" as="geometry" />
        </mxCell>
        <mxCell id="qYWw9UYQeMKu6ul-sRUe-25" style="edgeStyle=orthogonalEdgeStyle;rounded=0;orthogonalLoop=1;jettySize=auto;html=1;endArrow=open;endFill=0;startArrow=diamondThin;startFill=1;" parent="qYWw9UYQeMKu6ul-sRUe-17" source="qYWw9UYQeMKu6ul-sRUe-19" target="qYWw9UYQeMKu6ul-sRUe-18" edge="1">
          <mxGeometry relative="1" as="geometry" />
        </mxCell>
        <mxCell id="qYWw9UYQeMKu6ul-sRUe-19" value="&lt;p style=&quot;margin:0px;margin-top:4px;text-align:center;&quot;&gt;&lt;b&gt;InitService&lt;/b&gt;&lt;/p&gt;&lt;hr size=&quot;1&quot;&gt;&lt;p style=&quot;margin:0px;margin-left:4px;&quot;&gt;- Service: Service&lt;/p&gt;&lt;p style=&quot;margin:0px;margin-left:4px;&quot;&gt;- StartInfo: RequestedService&lt;/p&gt;&lt;p style=&quot;margin:0px;margin-left:4px;&quot;&gt;- InitializeAttempt: UInt&lt;/p&gt;" style="verticalAlign=top;align=left;overflow=fill;fontSize=12;fontFamily=Helvetica;html=1;fillColor=#e1d5e7;strokeColor=#9673a6;" parent="qYWw9UYQeMKu6ul-sRUe-17" vertex="1">
          <mxGeometry x="300" y="70.00000000000007" width="200" height="80.33" as="geometry" />
        </mxCell>
        <mxCell id="qYWw9UYQeMKu6ul-sRUe-24" style="edgeStyle=orthogonalEdgeStyle;rounded=0;orthogonalLoop=1;jettySize=auto;html=1;startArrow=diamondThin;startFill=1;endArrow=open;endFill=0;" parent="qYWw9UYQeMKu6ul-sRUe-17" source="qYWw9UYQeMKu6ul-sRUe-20" target="qYWw9UYQeMKu6ul-sRUe-22" edge="1">
          <mxGeometry relative="1" as="geometry" />
        </mxCell>
        <mxCell id="qYWw9UYQeMKu6ul-sRUe-20" value="&lt;p style=&quot;margin:0px;margin-top:4px;text-align:center;&quot;&gt;&lt;b&gt;Service&lt;/b&gt;&lt;/p&gt;&lt;hr size=&quot;1&quot;&gt;&lt;p style=&quot;margin:0px;margin-left:4px;&quot;&gt;- Info: ServiceInfo&lt;/p&gt;&lt;p style=&quot;margin:0px;margin-left:4px;&quot;&gt;- StartCounter: UInt&lt;/p&gt;&lt;p style=&quot;margin:0px;margin-left:4px;&quot;&gt;- IsAlive: Boolean&lt;/p&gt;&lt;p style=&quot;margin:0px;margin-left:4px;&quot;&gt;- Url: String&lt;/p&gt;&lt;p style=&quot;margin:0px;margin-left:4px;&quot;&gt;- Port: Port&lt;/p&gt;&lt;p style=&quot;margin:0px;margin-left:4px;&quot;&gt;- WebsocketUrl: String&lt;/p&gt;&lt;p style=&quot;margin:0px;margin-left:4px;&quot;&gt;- WebsocketPort: Port&lt;/p&gt;" style="verticalAlign=top;align=left;overflow=fill;fontSize=12;fontFamily=Helvetica;html=1;fillColor=#e1d5e7;strokeColor=#9673a6;" parent="qYWw9UYQeMKu6ul-sRUe-17" vertex="1">
          <mxGeometry x="320" y="570.0000000000001" width="160" height="150" as="geometry" />
        </mxCell>
        <mxCell id="qYWw9UYQeMKu6ul-sRUe-21" value="&lt;p style=&quot;margin:0px;margin-top:4px;text-align:center;&quot;&gt;&lt;b&gt;SessionInfo&lt;/b&gt;&lt;/p&gt;&lt;hr size=&quot;1&quot;&gt;&lt;p style=&quot;margin:0px;margin-left:4px;&quot;&gt;- ID: String&lt;/p&gt;&lt;p style=&quot;margin:0px;margin-left:4px;&quot;&gt;- LssUrl: String&lt;/p&gt;" style="verticalAlign=top;align=left;overflow=fill;fontSize=12;fontFamily=Helvetica;html=1;fillColor=#e1d5e7;strokeColor=#9673a6;" parent="qYWw9UYQeMKu6ul-sRUe-17" vertex="1">
          <mxGeometry x="20" y="69.99999999999984" width="160" height="80.33" as="geometry" />
        </mxCell>
        <mxCell id="qYWw9UYQeMKu6ul-sRUe-22" value="&lt;p style=&quot;margin:0px;margin-top:4px;text-align:center;&quot;&gt;&lt;b&gt;ServiceInfo&lt;/b&gt;&lt;/p&gt;&lt;hr size=&quot;1&quot;&gt;&lt;p style=&quot;margin:0px;margin-left:4px;&quot;&gt;- Name: String&lt;/p&gt;&lt;p style=&quot;margin:0px;margin-left:4px;&quot;&gt;- Type: String&lt;/p&gt;&lt;p style=&quot;margin:0px;margin-left:4px;&quot;&gt;- MaxCrashRestarts: UInt&lt;/p&gt;&lt;p style=&quot;margin:0px;margin-left:4px;&quot;&gt;- MaxStartupRestarts: UInt&lt;/p&gt;" style="verticalAlign=top;align=left;overflow=fill;fontSize=12;fontFamily=Helvetica;html=1;fillColor=#e1d5e7;strokeColor=#9673a6;" parent="qYWw9UYQeMKu6ul-sRUe-17" vertex="1">
          <mxGeometry x="320" y="390.00000000000006" width="160" height="100.33" as="geometry" />
        </mxCell>
        <mxCell id="qYWw9UYQeMKu6ul-sRUe-29" value="has" style="text;html=1;align=center;verticalAlign=middle;whiteSpace=wrap;rounded=0;fontStyle=2;fontSize=11;connectable=0;allowArrows=0;" parent="qYWw9UYQeMKu6ul-sRUe-17" vertex="1">
          <mxGeometry x="150" y="210.17000000000016" width="40" height="40" as="geometry" />
        </mxCell>
        <mxCell id="qYWw9UYQeMKu6ul-sRUe-30" value="has" style="text;html=1;align=center;verticalAlign=middle;whiteSpace=wrap;rounded=0;fontStyle=2;fontSize=11;connectable=0;allowArrows=0;" parent="qYWw9UYQeMKu6ul-sRUe-17" vertex="1">
          <mxGeometry x="400" y="150.33" width="40" height="40" as="geometry" />
        </mxCell>
        <mxCell id="qYWw9UYQeMKu6ul-sRUe-31" value="has" style="text;html=1;align=center;verticalAlign=middle;whiteSpace=wrap;rounded=0;fontStyle=2;fontSize=11;connectable=0;allowArrows=0;" parent="qYWw9UYQeMKu6ul-sRUe-17" vertex="1">
          <mxGeometry x="400" y="310.33" width="40" height="40" as="geometry" />
        </mxCell>
        <mxCell id="qYWw9UYQeMKu6ul-sRUe-32" value="has" style="text;html=1;align=center;verticalAlign=middle;whiteSpace=wrap;rounded=0;fontStyle=2;fontSize=11;connectable=0;allowArrows=0;" parent="qYWw9UYQeMKu6ul-sRUe-17" vertex="1">
          <mxGeometry x="400" y="530.0000000000001" width="40" height="40" as="geometry" />
        </mxCell>
        <mxCell id="qYWw9UYQeMKu6ul-sRUe-33" value="1" style="text;html=1;align=center;verticalAlign=middle;whiteSpace=wrap;rounded=0;connectable=0;allowArrows=0;" parent="qYWw9UYQeMKu6ul-sRUe-17" vertex="1">
          <mxGeometry x="400" y="350.33" width="40" height="40" as="geometry" />
        </mxCell>
        <mxCell id="qYWw9UYQeMKu6ul-sRUe-34" value="1" style="text;html=1;align=center;verticalAlign=middle;whiteSpace=wrap;rounded=0;connectable=0;allowArrows=0;" parent="qYWw9UYQeMKu6ul-sRUe-17" vertex="1">
          <mxGeometry x="400" y="190.00000000000009" width="40" height="40" as="geometry" />
        </mxCell>
        <mxCell id="qYWw9UYQeMKu6ul-sRUe-35" value="1" style="text;html=1;align=center;verticalAlign=middle;whiteSpace=wrap;rounded=0;connectable=0;allowArrows=0;" parent="qYWw9UYQeMKu6ul-sRUe-17" vertex="1">
          <mxGeometry x="400" y="490.33" width="40" height="40" as="geometry" />
        </mxCell>
        <mxCell id="qYWw9UYQeMKu6ul-sRUe-37" value="1" style="text;html=1;align=center;verticalAlign=middle;whiteSpace=wrap;rounded=0;connectable=0;allowArrows=0;" parent="qYWw9UYQeMKu6ul-sRUe-17" vertex="1">
          <mxGeometry x="140" y="150.00000000000009" width="40" height="40" as="geometry" />
        </mxCell>
        <mxCell id="qYWw9UYQeMKu6ul-sRUe-38" value="uses" style="text;html=1;align=center;verticalAlign=middle;whiteSpace=wrap;rounded=0;fontStyle=2;fontSize=11;connectable=0;allowArrows=0;" parent="qYWw9UYQeMKu6ul-sRUe-17" vertex="1">
          <mxGeometry x="60" y="250.17000000000004" width="40" height="40" as="geometry" />
        </mxCell>
        <mxCell id="qYWw9UYQeMKu6ul-sRUe-39" value="*" style="text;html=1;align=center;verticalAlign=middle;whiteSpace=wrap;rounded=0;fontStyle=1;connectable=0;allowArrows=0;" parent="qYWw9UYQeMKu6ul-sRUe-17" vertex="1">
          <mxGeometry x="60" y="150.00000000000009" width="40" height="40" as="geometry" />
        </mxCell>
        <mxCell id="qYWw9UYQeMKu6ul-sRUe-41" value="manages" style="text;html=1;align=center;verticalAlign=middle;whiteSpace=wrap;rounded=0;fontStyle=2;fontSize=11;connectable=0;allowArrows=0;" parent="qYWw9UYQeMKu6ul-sRUe-17" vertex="1">
          <mxGeometry x="150" y="250.17000000000004" width="40" height="40" as="geometry" />
        </mxCell>
        <mxCell id="qYWw9UYQeMKu6ul-sRUe-42" value="*" style="text;html=1;align=center;verticalAlign=middle;whiteSpace=wrap;rounded=0;fontStyle=1;connectable=0;allowArrows=0;" parent="qYWw9UYQeMKu6ul-sRUe-17" vertex="1">
          <mxGeometry x="280" y="290.17000000000013" width="40" height="40" as="geometry" />
        </mxCell>
        <mxCell id="qYWw9UYQeMKu6ul-sRUe-43" style="edgeStyle=orthogonalEdgeStyle;rounded=1;orthogonalLoop=1;jettySize=auto;html=1;jumpStyle=arc;endArrow=open;endFill=0;startArrow=diamondThin;startFill=1;curved=0;" parent="qYWw9UYQeMKu6ul-sRUe-17" source="qYWw9UYQeMKu6ul-sRUe-16" target="qYWw9UYQeMKu6ul-sRUe-19" edge="1">
          <mxGeometry relative="1" as="geometry">
            <Array as="points">
              <mxPoint x="220" y="110.00000000000007" />
            </Array>
          </mxGeometry>
        </mxCell>
        <mxCell id="qYWw9UYQeMKu6ul-sRUe-44" value="manages" style="text;html=1;align=center;verticalAlign=middle;whiteSpace=wrap;rounded=0;fontStyle=2;fontSize=11;connectable=0;allowArrows=0;" parent="qYWw9UYQeMKu6ul-sRUe-17" vertex="1">
          <mxGeometry x="220" y="170.17000000000016" width="60" height="40" as="geometry" />
        </mxCell>
        <mxCell id="qYWw9UYQeMKu6ul-sRUe-45" value="*" style="text;html=1;align=center;verticalAlign=middle;whiteSpace=wrap;rounded=0;fontStyle=1;connectable=0;allowArrows=0;" parent="qYWw9UYQeMKu6ul-sRUe-17" vertex="1">
          <mxGeometry x="260" y="110.00000000000007" width="40" height="40" as="geometry" />
        </mxCell>
        <mxCell id="qYWw9UYQeMKu6ul-sRUe-47" value="*" style="text;html=1;align=center;verticalAlign=middle;whiteSpace=wrap;rounded=0;fontStyle=1;connectable=0;allowArrows=0;" parent="qYWw9UYQeMKu6ul-sRUe-17" vertex="1">
          <mxGeometry x="280" y="630.0000000000001" width="40" height="40" as="geometry" />
        </mxCell>
        <mxCell id="qYWw9UYQeMKu6ul-sRUe-48" value="manages" style="text;html=1;align=center;verticalAlign=middle;whiteSpace=wrap;rounded=0;fontStyle=2;fontSize=11;connectable=0;allowArrows=0;" parent="qYWw9UYQeMKu6ul-sRUe-17" vertex="1">
          <mxGeometry x="140" y="590.0000000000001" width="60" height="40" as="geometry" />
        </mxCell>
        <mxCell id="qYWw9UYQeMKu6ul-sRUe-108" style="edgeStyle=orthogonalEdgeStyle;rounded=1;orthogonalLoop=1;jettySize=auto;html=1;curved=0;dashed=1;dashPattern=8 8;" parent="1" source="qYWw9UYQeMKu6ul-sRUe-49" target="qYWw9UYQeMKu6ul-sRUe-93" edge="1">
          <mxGeometry relative="1" as="geometry">
            <Array as="points">
              <mxPoint x="80" y="660" />
            </Array>
          </mxGeometry>
        </mxCell>
        <mxCell id="qYWw9UYQeMKu6ul-sRUe-49" value="&lt;h3&gt;Global Session Service (GSS)&lt;/h3&gt;" style="shape=folder;fontStyle=1;spacingTop=10;tabWidth=40;tabHeight=14;tabPosition=left;html=1;whiteSpace=wrap;connectable=1;allowArrows=1;rotatable=0;fillColor=#ffe6cc;strokeColor=#d79b00;container=1;align=center;verticalAlign=top;recursiveResize=0;" parent="1" vertex="1">
          <mxGeometry x="40" y="40" width="260" height="460" as="geometry">
            <mxRectangle x="640" y="480" width="90" height="40" as="alternateBounds" />
          </mxGeometry>
        </mxCell>
        <mxCell id="qYWw9UYQeMKu6ul-sRUe-53" style="edgeStyle=orthogonalEdgeStyle;rounded=0;orthogonalLoop=1;jettySize=auto;html=1;endArrow=open;endFill=0;startArrow=diamondThin;startFill=1;" parent="qYWw9UYQeMKu6ul-sRUe-49" source="qYWw9UYQeMKu6ul-sRUe-50" target="qYWw9UYQeMKu6ul-sRUe-51" edge="1">
          <mxGeometry relative="1" as="geometry" />
        </mxCell>
        <mxCell id="qYWw9UYQeMKu6ul-sRUe-50" value="&lt;p style=&quot;margin:0px;margin-top:4px;text-align:center;&quot;&gt;&lt;b&gt;Session&lt;/b&gt;&lt;/p&gt;&lt;hr size=&quot;1&quot;&gt;&lt;p style=&quot;margin:0px;margin-left:4px;&quot;&gt;- State: SessionState&lt;/p&gt;&lt;p style=&quot;margin:0px;margin-left:4px;&quot;&gt;- ID: String&lt;/p&gt;&lt;p style=&quot;margin:0px;margin-left:4px;&quot;&gt;- UserName: String&lt;/p&gt;" style="verticalAlign=top;align=left;overflow=fill;fontSize=12;fontFamily=Helvetica;html=1;fillColor=#e1d5e7;strokeColor=#9673a6;" parent="qYWw9UYQeMKu6ul-sRUe-49" vertex="1">
          <mxGeometry x="50" y="199.9999999999999" width="160" height="80.33" as="geometry" />
        </mxCell>
        <mxCell id="qYWw9UYQeMKu6ul-sRUe-51" value="&lt;p style=&quot;margin:0px;margin-top:4px;text-align:center;&quot;&gt;&lt;span style=&quot;background-color: initial;&quot;&gt;&lt;font style=&quot;font-size: 11px;&quot;&gt;&amp;lt;&amp;lt;enumeration&amp;gt;&amp;gt;&lt;/font&gt;&lt;/span&gt;&lt;/p&gt;&lt;p style=&quot;margin:0px;margin-top:4px;text-align:center;&quot;&gt;&lt;b&gt;SessionState&lt;/b&gt;&lt;/p&gt;&lt;hr size=&quot;1&quot;&gt;&lt;p style=&quot;margin:0px;margin-left:4px;&quot;&gt;NoStateFlags = 0x00&lt;/p&gt;&lt;p style=&quot;margin:0px;margin-left:4px;&quot;&gt;LssConfirmed = 0x01&lt;/p&gt;" style="verticalAlign=top;align=left;overflow=fill;fontSize=12;fontFamily=Helvetica;html=1;fillColor=#e1d5e7;strokeColor=#9673a6;rounded=0;" parent="qYWw9UYQeMKu6ul-sRUe-49" vertex="1">
          <mxGeometry x="50" y="70" width="160" height="80" as="geometry" />
        </mxCell>
        <mxCell id="qYWw9UYQeMKu6ul-sRUe-54" value="1" style="text;html=1;align=center;verticalAlign=middle;whiteSpace=wrap;rounded=0;connectable=0;allowArrows=0;" parent="qYWw9UYQeMKu6ul-sRUe-49" vertex="1">
          <mxGeometry x="130" y="150" width="40" height="40" as="geometry" />
        </mxCell>
        <mxCell id="qYWw9UYQeMKu6ul-sRUe-55" value="has" style="text;html=1;align=center;verticalAlign=middle;whiteSpace=wrap;rounded=0;fontStyle=2;fontSize=11;connectable=0;allowArrows=0;" parent="qYWw9UYQeMKu6ul-sRUe-49" vertex="1">
          <mxGeometry x="90" y="160" width="40" height="40" as="geometry" />
        </mxCell>
        <mxCell id="qYWw9UYQeMKu6ul-sRUe-57" style="edgeStyle=orthogonalEdgeStyle;rounded=0;orthogonalLoop=1;jettySize=auto;html=1;endArrow=open;endFill=0;startArrow=diamondThin;startFill=1;" parent="qYWw9UYQeMKu6ul-sRUe-49" source="qYWw9UYQeMKu6ul-sRUe-56" target="qYWw9UYQeMKu6ul-sRUe-50" edge="1">
          <mxGeometry relative="1" as="geometry" />
        </mxCell>
        <mxCell id="qYWw9UYQeMKu6ul-sRUe-56" value="&lt;p style=&quot;margin:0px;margin-top:4px;text-align:center;&quot;&gt;&lt;b&gt;LSS&lt;/b&gt;&lt;/p&gt;&lt;hr size=&quot;1&quot;&gt;&lt;p style=&quot;margin:0px;margin-left:4px;&quot;&gt;- ID: ServiceID&lt;/p&gt;&lt;p style=&quot;margin:0px;margin-left:4px;&quot;&gt;- Url: String&lt;/p&gt;&lt;p style=&quot;margin:0px;margin-left:4px;&quot;&gt;- ActiveSessions: Session[*]&lt;/p&gt;&lt;p style=&quot;margin:0px;margin-left:4px;&quot;&gt;- IniSessions: Pair&amp;lt;Time, Session&amp;gt;[*]&lt;/p&gt;" style="verticalAlign=top;align=left;overflow=fill;fontSize=12;fontFamily=Helvetica;html=1;fillColor=#e1d5e7;strokeColor=#9673a6;" parent="qYWw9UYQeMKu6ul-sRUe-49" vertex="1">
          <mxGeometry x="20" y="330" width="220" height="100" as="geometry" />
        </mxCell>
        <mxCell id="qYWw9UYQeMKu6ul-sRUe-58" value="has" style="text;html=1;align=center;verticalAlign=middle;whiteSpace=wrap;rounded=0;fontStyle=2;fontSize=11;connectable=0;allowArrows=0;" parent="qYWw9UYQeMKu6ul-sRUe-49" vertex="1">
          <mxGeometry x="90" y="290" width="40" height="40" as="geometry" />
        </mxCell>
        <mxCell id="qYWw9UYQeMKu6ul-sRUe-59" value="*" style="text;html=1;align=center;verticalAlign=middle;whiteSpace=wrap;rounded=0;fontStyle=1;connectable=0;allowArrows=0;" parent="qYWw9UYQeMKu6ul-sRUe-49" vertex="1">
          <mxGeometry x="130" y="280.33" width="40" height="40" as="geometry" />
        </mxCell>
        <mxCell id="qYWw9UYQeMKu6ul-sRUe-114" style="edgeStyle=orthogonalEdgeStyle;rounded=0;orthogonalLoop=1;jettySize=auto;html=1;dashed=1;dashPattern=8 8;" parent="1" source="qYWw9UYQeMKu6ul-sRUe-87" target="qYWw9UYQeMKu6ul-sRUe-14" edge="1">
          <mxGeometry relative="1" as="geometry">
            <Array as="points">
              <mxPoint x="830" y="450" />
              <mxPoint x="830" y="450" />
            </Array>
          </mxGeometry>
        </mxCell>
        <mxCell id="qYWw9UYQeMKu6ul-sRUe-87" value="&lt;h3&gt;Global Directory Service (GDS)&lt;/h3&gt;" style="shape=folder;fontStyle=1;spacingTop=10;tabWidth=40;tabHeight=14;tabPosition=left;html=1;whiteSpace=wrap;connectable=1;allowArrows=1;rotatable=0;fillColor=#ffe6cc;strokeColor=#d79b00;container=1;align=center;verticalAlign=top;recursiveResize=0;treeFolding=0;" parent="1" vertex="1">
          <mxGeometry x="840" y="40" width="330" height="800" as="geometry">
            <mxRectangle x="640" y="480" width="90" height="40" as="alternateBounds" />
          </mxGeometry>
        </mxCell>
        <mxCell id="R8Z1bKz5aa877HbmtHQx-1" style="edgeStyle=orthogonalEdgeStyle;rounded=0;orthogonalLoop=1;jettySize=auto;html=1;endArrow=open;endFill=0;startArrow=diamondThin;startFill=1;" edge="1" parent="qYWw9UYQeMKu6ul-sRUe-87" source="qYWw9UYQeMKu6ul-sRUe-61" target="qYWw9UYQeMKu6ul-sRUe-62">
          <mxGeometry relative="1" as="geometry" />
        </mxCell>
        <mxCell id="qYWw9UYQeMKu6ul-sRUe-61" value="&lt;p style=&quot;margin:0px;margin-top:4px;text-align:center;&quot;&gt;&lt;b&gt;ServiceInfo&lt;/b&gt;&lt;/p&gt;&lt;hr size=&quot;1&quot;&gt;&lt;p style=&quot;margin:0px;margin-left:4px;&quot;&gt;- Name: String&lt;/p&gt;&lt;p style=&quot;margin:0px;margin-left:4px;&quot;&gt;- Type: String&lt;/p&gt;&lt;p style=&quot;margin:0px;margin-left:4px;&quot;&gt;- Session: SessionInfo&lt;/p&gt;" style="verticalAlign=top;align=left;overflow=fill;fontSize=12;fontFamily=Helvetica;html=1;fillColor=#e1d5e7;strokeColor=#9673a6;" parent="qYWw9UYQeMKu6ul-sRUe-87" vertex="1">
          <mxGeometry x="70" y="220" width="160" height="80" as="geometry" />
        </mxCell>
        <mxCell id="qYWw9UYQeMKu6ul-sRUe-62" value="&lt;p style=&quot;margin:0px;margin-top:4px;text-align:center;&quot;&gt;&lt;b&gt;SessionInfo&lt;/b&gt;&lt;/p&gt;&lt;hr size=&quot;1&quot;&gt;&lt;p style=&quot;margin:0px;margin-left:4px;&quot;&gt;- ID: String&lt;/p&gt;&lt;p style=&quot;margin:0px;margin-left:4px;&quot;&gt;- Lss&lt;span style=&quot;background-color: transparent; color: light-dark(rgb(0, 0, 0), rgb(255, 255, 255));&quot;&gt;Url: String&lt;/span&gt;&lt;/p&gt;" style="verticalAlign=top;align=left;overflow=fill;fontSize=12;fontFamily=Helvetica;html=1;fillColor=#e1d5e7;strokeColor=#9673a6;" parent="qYWw9UYQeMKu6ul-sRUe-87" vertex="1">
          <mxGeometry x="70" y="69.99999999999983" width="160" height="80.33" as="geometry" />
        </mxCell>
        <mxCell id="qYWw9UYQeMKu6ul-sRUe-70" style="edgeStyle=orthogonalEdgeStyle;rounded=0;orthogonalLoop=1;jettySize=auto;html=1;endArrow=open;endFill=0;startArrow=diamondThin;startFill=1;" parent="qYWw9UYQeMKu6ul-sRUe-87" source="qYWw9UYQeMKu6ul-sRUe-64" target="qYWw9UYQeMKu6ul-sRUe-61" edge="1">
          <mxGeometry relative="1" as="geometry">
            <Array as="points">
              <mxPoint x="150" y="340" />
              <mxPoint x="150" y="340" />
            </Array>
          </mxGeometry>
        </mxCell>
        <mxCell id="qYWw9UYQeMKu6ul-sRUe-64" value="&lt;p style=&quot;margin:0px;margin-top:4px;text-align:center;&quot;&gt;&lt;b&gt;LDS&lt;/b&gt;&lt;/p&gt;&lt;hr size=&quot;1&quot;&gt;&lt;p style=&quot;margin:0px;margin-left:4px;&quot;&gt;- SupportedServices: String[*]&lt;/p&gt;&lt;p style=&quot;margin:0px;margin-left:4px;&quot;&gt;- Services: ServiceInfo[*]&lt;/p&gt;" style="verticalAlign=top;align=left;overflow=fill;fontSize=12;fontFamily=Helvetica;html=1;fillColor=#e1d5e7;strokeColor=#9673a6;" parent="qYWw9UYQeMKu6ul-sRUe-87" vertex="1">
          <mxGeometry x="30" y="380" width="240" height="80" as="geometry" />
        </mxCell>
        <mxCell id="qYWw9UYQeMKu6ul-sRUe-72" style="edgeStyle=orthogonalEdgeStyle;rounded=0;orthogonalLoop=1;jettySize=auto;html=1;endArrow=open;endFill=0;startArrow=diamondThin;startFill=1;" parent="qYWw9UYQeMKu6ul-sRUe-87" source="qYWw9UYQeMKu6ul-sRUe-65" target="qYWw9UYQeMKu6ul-sRUe-66" edge="1">
          <mxGeometry relative="1" as="geometry" />
        </mxCell>
        <mxCell id="qYWw9UYQeMKu6ul-sRUe-75" style="edgeStyle=orthogonalEdgeStyle;rounded=0;orthogonalLoop=1;jettySize=auto;html=1;endArrow=open;endFill=0;startArrow=diamondThin;startFill=1;" parent="qYWw9UYQeMKu6ul-sRUe-87" source="qYWw9UYQeMKu6ul-sRUe-65" target="qYWw9UYQeMKu6ul-sRUe-64" edge="1">
          <mxGeometry relative="1" as="geometry" />
        </mxCell>
        <mxCell id="qYWw9UYQeMKu6ul-sRUe-65" value="&lt;p style=&quot;margin:0px;margin-top:4px;text-align:center;&quot;&gt;&lt;b&gt;Application&lt;/b&gt;&lt;/p&gt;&lt;hr size=&quot;1&quot;&gt;&lt;p style=&quot;margin:0px;margin-left:4px;&quot;&gt;- GssUrl: String&lt;/p&gt;&lt;p style=&quot;margin:0px;margin-left:4px;&quot;&gt;- LdsList: LDS[*]&lt;/p&gt;&lt;p style=&quot;margin:0px;margin-left:4px;&quot;&gt;- StartupDispatch: StartupDispatcher&lt;/p&gt;" style="verticalAlign=top;align=left;overflow=fill;fontSize=12;fontFamily=Helvetica;html=1;fillColor=#e1d5e7;strokeColor=#9673a6;" parent="qYWw9UYQeMKu6ul-sRUe-87" vertex="1">
          <mxGeometry x="30" y="540" width="240" height="80" as="geometry" />
        </mxCell>
        <mxCell id="qYWw9UYQeMKu6ul-sRUe-76" style="edgeStyle=orthogonalEdgeStyle;rounded=1;orthogonalLoop=1;jettySize=auto;html=1;curved=0;endArrow=open;endFill=0;startArrow=diamondThin;startFill=1;" parent="qYWw9UYQeMKu6ul-sRUe-87" source="qYWw9UYQeMKu6ul-sRUe-66" target="qYWw9UYQeMKu6ul-sRUe-61" edge="1">
          <mxGeometry relative="1" as="geometry">
            <Array as="points">
              <mxPoint x="300" y="740" />
              <mxPoint x="300" y="260" />
            </Array>
            <mxPoint x="350" y="300" as="targetPoint" />
          </mxGeometry>
        </mxCell>
        <mxCell id="qYWw9UYQeMKu6ul-sRUe-66" value="&lt;p style=&quot;margin:0px;margin-top:4px;text-align:center;&quot;&gt;&lt;b&gt;StartupDispatcher&lt;/b&gt;&lt;/p&gt;&lt;hr size=&quot;1&quot;&gt;&lt;p style=&quot;margin:0px;margin-left:4px;&quot;&gt;- Requests: ServiceInfo[*]&lt;/p&gt;" style="verticalAlign=top;align=left;overflow=fill;fontSize=12;fontFamily=Helvetica;html=1;fillColor=#e1d5e7;strokeColor=#9673a6;" parent="qYWw9UYQeMKu6ul-sRUe-87" vertex="1">
          <mxGeometry x="30" y="700" width="240" height="80" as="geometry" />
        </mxCell>
        <mxCell id="qYWw9UYQeMKu6ul-sRUe-73" value="has" style="text;html=1;align=center;verticalAlign=middle;whiteSpace=wrap;rounded=0;fontStyle=2;fontSize=11;connectable=0;allowArrows=0;" parent="qYWw9UYQeMKu6ul-sRUe-87" vertex="1">
          <mxGeometry x="110" y="640" width="40" height="40" as="geometry" />
        </mxCell>
        <mxCell id="qYWw9UYQeMKu6ul-sRUe-74" value="1" style="text;html=1;align=center;verticalAlign=middle;whiteSpace=wrap;rounded=0;connectable=0;allowArrows=0;" parent="qYWw9UYQeMKu6ul-sRUe-87" vertex="1">
          <mxGeometry x="150" y="660" width="40" height="40" as="geometry" />
        </mxCell>
        <mxCell id="qYWw9UYQeMKu6ul-sRUe-77" value="*" style="text;html=1;align=center;verticalAlign=middle;whiteSpace=wrap;rounded=0;fontStyle=1;connectable=0;allowArrows=0;" parent="qYWw9UYQeMKu6ul-sRUe-87" vertex="1">
          <mxGeometry x="150" y="460" width="40" height="40" as="geometry" />
        </mxCell>
        <mxCell id="qYWw9UYQeMKu6ul-sRUe-78" value="has" style="text;html=1;align=center;verticalAlign=middle;whiteSpace=wrap;rounded=0;fontStyle=2;fontSize=11;connectable=0;allowArrows=0;" parent="qYWw9UYQeMKu6ul-sRUe-87" vertex="1">
          <mxGeometry x="110" y="484.5" width="40" height="40" as="geometry" />
        </mxCell>
        <mxCell id="qYWw9UYQeMKu6ul-sRUe-79" value="uses" style="text;html=1;align=center;verticalAlign=middle;whiteSpace=wrap;rounded=0;fontStyle=2;fontSize=11;connectable=0;allowArrows=0;" parent="qYWw9UYQeMKu6ul-sRUe-87" vertex="1">
          <mxGeometry x="110" y="320" width="40" height="40" as="geometry" />
        </mxCell>
        <mxCell id="qYWw9UYQeMKu6ul-sRUe-80" value="*" style="text;html=1;align=center;verticalAlign=middle;whiteSpace=wrap;rounded=0;fontStyle=1;connectable=0;allowArrows=0;" parent="qYWw9UYQeMKu6ul-sRUe-87" vertex="1">
          <mxGeometry x="150" y="300" width="40" height="40" as="geometry" />
        </mxCell>
        <mxCell id="qYWw9UYQeMKu6ul-sRUe-84" value="has" style="text;html=1;align=center;verticalAlign=middle;whiteSpace=wrap;rounded=0;fontStyle=2;fontSize=11;connectable=0;allowArrows=0;" parent="qYWw9UYQeMKu6ul-sRUe-87" vertex="1">
          <mxGeometry x="110" y="170" width="40" height="40" as="geometry" />
        </mxCell>
        <mxCell id="R8Z1bKz5aa877HbmtHQx-2" value="1" style="text;html=1;align=center;verticalAlign=middle;whiteSpace=wrap;rounded=0;connectable=0;allowArrows=0;" vertex="1" parent="qYWw9UYQeMKu6ul-sRUe-87">
          <mxGeometry x="150" y="150.33000000000004" width="40" height="40" as="geometry" />
        </mxCell>
        <mxCell id="R8Z1bKz5aa877HbmtHQx-3" value="*" style="text;html=1;align=center;verticalAlign=middle;whiteSpace=wrap;rounded=0;fontStyle=1;connectable=0;allowArrows=0;" vertex="1" parent="qYWw9UYQeMKu6ul-sRUe-87">
          <mxGeometry x="230" y="260" width="40" height="40" as="geometry" />
        </mxCell>
        <mxCell id="R8Z1bKz5aa877HbmtHQx-4" value="has" style="text;html=1;align=center;verticalAlign=middle;whiteSpace=wrap;rounded=0;fontStyle=2;fontSize=11;connectable=0;allowArrows=0;" vertex="1" parent="qYWw9UYQeMKu6ul-sRUe-87">
          <mxGeometry x="260" y="484.5" width="40" height="40" as="geometry" />
        </mxCell>
        <mxCell id="qYWw9UYQeMKu6ul-sRUe-94" style="edgeStyle=orthogonalEdgeStyle;rounded=1;orthogonalLoop=1;jettySize=auto;html=1;curved=0;" parent="1" source="qYWw9UYQeMKu6ul-sRUe-93" target="qYWw9UYQeMKu6ul-sRUe-49" edge="1">
          <mxGeometry relative="1" as="geometry">
            <Array as="points">
              <mxPoint x="90" y="610" />
            </Array>
          </mxGeometry>
        </mxCell>
        <mxCell id="qYWw9UYQeMKu6ul-sRUe-95" style="edgeStyle=orthogonalEdgeStyle;rounded=1;orthogonalLoop=1;jettySize=auto;html=1;curved=0;" parent="1" source="qYWw9UYQeMKu6ul-sRUe-93" target="qYWw9UYQeMKu6ul-sRUe-14" edge="1">
          <mxGeometry relative="1" as="geometry">
            <Array as="points">
              <mxPoint x="500" y="610" />
            </Array>
          </mxGeometry>
        </mxCell>
        <mxCell id="qYWw9UYQeMKu6ul-sRUe-93" value="&lt;h3&gt;Frontend&lt;/h3&gt;" style="shape=folder;fontStyle=1;spacingTop=10;tabWidth=40;tabHeight=14;tabPosition=left;html=1;whiteSpace=wrap;connectable=1;allowArrows=1;rotatable=0;fillColor=#ffe6cc;strokeColor=#d79b00;container=1;align=center;verticalAlign=top;recursiveResize=0;" parent="1" vertex="1">
          <mxGeometry x="200" y="590" width="200" height="80" as="geometry">
            <mxRectangle x="640" y="480" width="90" height="40" as="alternateBounds" />
          </mxGeometry>
        </mxCell>
        <mxCell id="qYWw9UYQeMKu6ul-sRUe-96" value="Request LSS" style="text;html=1;align=center;verticalAlign=middle;whiteSpace=wrap;rounded=0;fontStyle=1;fontSize=11;connectable=0;allowArrows=0;" parent="1" vertex="1">
          <mxGeometry x="90" y="570" width="90" height="40" as="geometry" />
        </mxCell>
        <mxCell id="qYWw9UYQeMKu6ul-sRUe-97" value="&lt;span style=&quot;&quot;&gt;&lt;span&gt;Create Session&lt;/span&gt;&lt;/span&gt;" style="text;html=1;align=center;verticalAlign=middle;whiteSpace=wrap;rounded=0;fontStyle=1;fontSize=11;connectable=0;allowArrows=0;" parent="1" vertex="1">
          <mxGeometry x="400" y="570" width="90" height="40" as="geometry" />
        </mxCell>
        <mxCell id="qYWw9UYQeMKu6ul-sRUe-98" value="&lt;ul&gt;&lt;li&gt;Session ID&lt;/li&gt;&lt;li style=&quot;&quot;&gt;User Name&lt;/li&gt;&lt;/ul&gt;" style="text;html=1;align=left;verticalAlign=middle;whiteSpace=wrap;rounded=0;fontStyle=2;fontSize=11;connectable=0;allowArrows=0;" parent="1" vertex="1">
          <mxGeometry x="80" y="610" width="110" height="40" as="geometry" />
        </mxCell>
        <mxCell id="qYWw9UYQeMKu6ul-sRUe-99" value="&lt;ul&gt;&lt;li&gt;Session ID&lt;/li&gt;&lt;li&gt;User Name&lt;/li&gt;&lt;li&gt;Project Name&lt;/li&gt;&lt;li&gt;Collection Name&lt;/li&gt;&lt;li&gt;Session Type&lt;/li&gt;&lt;li&gt;User Credentials&lt;/li&gt;&lt;li&gt;Database Credentials&lt;/li&gt;&lt;li&gt;Creating Service Name&lt;/li&gt;&lt;li&gt;Creating Service Type&lt;/li&gt;&lt;li&gt;Creating Service Port&lt;/li&gt;&lt;li&gt;Host Address&lt;/li&gt;&lt;/ul&gt;" style="text;html=1;align=left;verticalAlign=middle;whiteSpace=wrap;rounded=0;fontStyle=2;fontSize=11;connectable=0;allowArrows=0;" parent="1" vertex="1">
          <mxGeometry x="390" y="610" width="160" height="160" as="geometry" />
        </mxCell>
        <mxCell id="qYWw9UYQeMKu6ul-sRUe-100" value="Confirm Session" style="text;html=1;align=center;verticalAlign=middle;whiteSpace=wrap;rounded=0;fontStyle=1;fontSize=11;connectable=0;allowArrows=0;" parent="1" vertex="1">
          <mxGeometry x="325" y="160" width="90" height="40" as="geometry" />
        </mxCell>
        <mxCell id="qYWw9UYQeMKu6ul-sRUe-101" value="&lt;ul&gt;&lt;li&gt;Session ID&lt;/li&gt;&lt;li style=&quot;&quot;&gt;User Name&lt;/li&gt;&lt;li style=&quot;&quot;&gt;LSS ID&lt;/li&gt;&lt;/ul&gt;" style="text;html=1;align=left;verticalAlign=middle;whiteSpace=wrap;rounded=0;fontStyle=2;fontSize=11;connectable=0;allowArrows=0;" parent="1" vertex="1">
          <mxGeometry x="310" y="200" width="110" height="50" as="geometry" />
        </mxCell>
        <mxCell id="qYWw9UYQeMKu6ul-sRUe-103" value="Request Service" style="text;html=1;align=center;verticalAlign=middle;whiteSpace=wrap;rounded=0;fontStyle=1;fontSize=11;connectable=0;allowArrows=0;" parent="1" vertex="1">
          <mxGeometry x="713.75" y="160" width="90" height="40" as="geometry" />
        </mxCell>
        <mxCell id="qYWw9UYQeMKu6ul-sRUe-104" value="&lt;ul&gt;&lt;li&gt;Session ID&lt;/li&gt;&lt;li style=&quot;&quot;&gt;LSS Url&lt;/li&gt;&lt;li style=&quot;&quot;&gt;Service Name&lt;/li&gt;&lt;li style=&quot;&quot;&gt;Service Type&lt;/li&gt;&lt;/ul&gt;" style="text;html=1;align=left;verticalAlign=middle;whiteSpace=wrap;rounded=0;fontStyle=2;fontSize=11;connectable=0;allowArrows=0;" parent="1" vertex="1">
          <mxGeometry x="687.5" y="200" width="115" height="70" as="geometry" />
        </mxCell>
        <mxCell id="qYWw9UYQeMKu6ul-sRUe-106" value="Request Relay Service" style="text;html=1;align=center;verticalAlign=middle;whiteSpace=wrap;rounded=0;fontStyle=1;fontSize=11;connectable=0;allowArrows=0;" parent="1" vertex="1">
          <mxGeometry x="696" y="360" width="125.5" height="40" as="geometry" />
        </mxCell>
        <mxCell id="qYWw9UYQeMKu6ul-sRUe-107" value="&lt;ul&gt;&lt;li&gt;Session ID&lt;/li&gt;&lt;li style=&quot;&quot;&gt;LSS Url&lt;/li&gt;&lt;/ul&gt;" style="text;html=1;align=left;verticalAlign=middle;whiteSpace=wrap;rounded=0;fontStyle=2;fontSize=11;connectable=0;allowArrows=0;" parent="1" vertex="1">
          <mxGeometry x="687.5" y="400" width="115" height="40" as="geometry" />
        </mxCell>
        <mxCell id="qYWw9UYQeMKu6ul-sRUe-109" value="&lt;ul&gt;&lt;li&gt;LSS Url&lt;/li&gt;&lt;/ul&gt;" style="text;html=1;align=left;verticalAlign=middle;whiteSpace=wrap;rounded=0;fontStyle=2;fontSize=11;connectable=0;allowArrows=0;" parent="1" vertex="1">
          <mxGeometry x="80" y="660" width="110" height="40" as="geometry" />
        </mxCell>
        <mxCell id="qYWw9UYQeMKu6ul-sRUe-111" value="&lt;ul&gt;&lt;li&gt;Service ID&lt;/li&gt;&lt;li&gt;Websocket URL&lt;/li&gt;&lt;/ul&gt;" style="text;html=1;align=left;verticalAlign=middle;whiteSpace=wrap;rounded=0;fontStyle=2;fontSize=11;connectable=0;allowArrows=0;" parent="1" vertex="1">
          <mxGeometry x="390" y="780" width="140" height="40" as="geometry" />
        </mxCell>
        <mxCell id="qYWw9UYQeMKu6ul-sRUe-115" value="&lt;ul&gt;&lt;li&gt;Relay Service URL&lt;/li&gt;&lt;li&gt;Websocket URL&lt;/li&gt;&lt;/ul&gt;" style="text;html=1;align=left;verticalAlign=middle;whiteSpace=wrap;rounded=0;fontStyle=2;fontSize=11;connectable=0;allowArrows=0;" parent="1" vertex="1">
          <mxGeometry x="687.5" y="450" width="142.5" height="40" as="geometry" />
        </mxCell>
        <mxCell id="qYWw9UYQeMKu6ul-sRUe-137" style="edgeStyle=orthogonalEdgeStyle;rounded=1;orthogonalLoop=1;jettySize=auto;html=1;strokeColor=default;curved=0;" parent="1" source="qYWw9UYQeMKu6ul-sRUe-116" target="qYWw9UYQeMKu6ul-sRUe-14" edge="1">
          <mxGeometry relative="1" as="geometry">
            <Array as="points">
              <mxPoint x="650" y="920" />
            </Array>
          </mxGeometry>
        </mxCell>
        <mxCell id="qYWw9UYQeMKu6ul-sRUe-116" value="&lt;h3&gt;Service&lt;/h3&gt;" style="shape=folder;fontStyle=1;spacingTop=10;tabWidth=40;tabHeight=14;tabPosition=left;html=1;whiteSpace=wrap;connectable=1;allowArrows=1;rotatable=0;fillColor=#ffe6cc;strokeColor=#d79b00;container=1;align=center;verticalAlign=top;recursiveResize=0;" parent="1" vertex="1">
          <mxGeometry x="1320" y="880" width="200" height="200" as="geometry">
            <mxRectangle x="640" y="480" width="90" height="40" as="alternateBounds" />
          </mxGeometry>
        </mxCell>
        <mxCell id="qYWw9UYQeMKu6ul-sRUe-117" style="edgeStyle=orthogonalEdgeStyle;rounded=0;orthogonalLoop=1;jettySize=auto;html=1;" parent="1" source="qYWw9UYQeMKu6ul-sRUe-87" target="qYWw9UYQeMKu6ul-sRUe-17" edge="1">
          <mxGeometry relative="1" as="geometry">
            <mxPoint x="1370" y="200" as="sourcePoint" />
            <mxPoint x="1530" y="200" as="targetPoint" />
            <Array as="points">
              <mxPoint x="1260" y="200" />
              <mxPoint x="1260" y="200" />
            </Array>
          </mxGeometry>
        </mxCell>
        <mxCell id="qYWw9UYQeMKu6ul-sRUe-118" style="edgeStyle=orthogonalEdgeStyle;rounded=0;orthogonalLoop=1;jettySize=auto;html=1;" parent="1" source="qYWw9UYQeMKu6ul-sRUe-87" target="qYWw9UYQeMKu6ul-sRUe-17" edge="1">
          <mxGeometry relative="1" as="geometry">
            <mxPoint x="1370" y="400" as="sourcePoint" />
            <mxPoint x="1530" y="400" as="targetPoint" />
            <Array as="points">
              <mxPoint x="1240" y="400" />
              <mxPoint x="1240" y="400" />
            </Array>
          </mxGeometry>
        </mxCell>
        <mxCell id="qYWw9UYQeMKu6ul-sRUe-119" style="edgeStyle=orthogonalEdgeStyle;rounded=0;orthogonalLoop=1;jettySize=auto;html=1;dashed=1;dashPattern=8 8;" parent="1" source="qYWw9UYQeMKu6ul-sRUe-17" target="qYWw9UYQeMKu6ul-sRUe-87" edge="1">
          <mxGeometry relative="1" as="geometry">
            <mxPoint x="1530" y="450" as="sourcePoint" />
            <mxPoint x="1370" y="450" as="targetPoint" />
            <Array as="points">
              <mxPoint x="1230" y="450" />
              <mxPoint x="1230" y="450" />
            </Array>
          </mxGeometry>
        </mxCell>
        <mxCell id="qYWw9UYQeMKu6ul-sRUe-120" value="Request Service" style="text;html=1;align=center;verticalAlign=middle;whiteSpace=wrap;rounded=0;fontStyle=1;fontSize=11;connectable=0;allowArrows=0;" parent="1" vertex="1">
          <mxGeometry x="1197.75" y="160" width="90" height="40" as="geometry" />
        </mxCell>
        <mxCell id="qYWw9UYQeMKu6ul-sRUe-121" value="&lt;ul&gt;&lt;li&gt;Session ID&lt;/li&gt;&lt;li style=&quot;&quot;&gt;LSS Url&lt;/li&gt;&lt;li style=&quot;&quot;&gt;Service Name&lt;/li&gt;&lt;li style=&quot;&quot;&gt;Service Type&lt;/li&gt;&lt;/ul&gt;" style="text;html=1;align=left;verticalAlign=middle;whiteSpace=wrap;rounded=0;fontStyle=2;fontSize=11;connectable=0;allowArrows=0;" parent="1" vertex="1">
          <mxGeometry x="1180" y="200" width="115" height="70" as="geometry" />
        </mxCell>
        <mxCell id="qYWw9UYQeMKu6ul-sRUe-122" value="Request Relay Service" style="text;html=1;align=center;verticalAlign=middle;whiteSpace=wrap;rounded=0;fontStyle=1;fontSize=11;connectable=0;allowArrows=0;" parent="1" vertex="1">
          <mxGeometry x="1180" y="360" width="125.5" height="40" as="geometry" />
        </mxCell>
        <mxCell id="qYWw9UYQeMKu6ul-sRUe-123" value="&lt;ul&gt;&lt;li&gt;Session ID&lt;/li&gt;&lt;li style=&quot;&quot;&gt;LSS Url&lt;/li&gt;&lt;/ul&gt;" style="text;html=1;align=left;verticalAlign=middle;whiteSpace=wrap;rounded=0;fontStyle=2;fontSize=11;connectable=0;allowArrows=0;" parent="1" vertex="1">
          <mxGeometry x="1180" y="400" width="115" height="40" as="geometry" />
        </mxCell>
        <mxCell id="qYWw9UYQeMKu6ul-sRUe-124" value="&lt;ul&gt;&lt;li&gt;Relay Service URL&lt;/li&gt;&lt;li&gt;Websocket URL&lt;/li&gt;&lt;/ul&gt;" style="text;html=1;align=left;verticalAlign=middle;whiteSpace=wrap;rounded=0;fontStyle=2;fontSize=11;connectable=0;allowArrows=0;" parent="1" vertex="1">
          <mxGeometry x="1180" y="450" width="142.5" height="40" as="geometry" />
        </mxCell>
        <mxCell id="qYWw9UYQeMKu6ul-sRUe-125" value="&lt;h3&gt;Relay Service&lt;/h3&gt;" style="shape=folder;fontStyle=1;spacingTop=10;tabWidth=40;tabHeight=14;tabPosition=left;html=1;whiteSpace=wrap;connectable=1;allowArrows=1;rotatable=0;fillColor=#ffe6cc;strokeColor=#d79b00;container=1;align=center;verticalAlign=top;recursiveResize=0;" parent="1" vertex="1">
          <mxGeometry x="1642.5" y="880" width="200" height="200" as="geometry">
            <mxRectangle x="640" y="480" width="90" height="40" as="alternateBounds" />
          </mxGeometry>
        </mxCell>
        <mxCell id="qYWw9UYQeMKu6ul-sRUe-126" value="User" style="shape=umlActor;verticalLabelPosition=bottom;verticalAlign=top;html=1;outlineConnect=0;" parent="1" vertex="1">
          <mxGeometry x="250" y="690" width="30" height="60" as="geometry" />
        </mxCell>
        <mxCell id="qYWw9UYQeMKu6ul-sRUe-129" value="Start Relay" style="text;html=1;align=center;verticalAlign=middle;whiteSpace=wrap;rounded=0;fontStyle=1;fontSize=11;connectable=0;allowArrows=0;" parent="1" vertex="1">
          <mxGeometry x="1680" y="790" width="100" height="40" as="geometry" />
        </mxCell>
        <mxCell id="qYWw9UYQeMKu6ul-sRUe-130" value="&lt;ol&gt;&lt;li&gt;LDS Url&lt;/li&gt;&lt;li&gt;&quot;Own&quot; Relay&amp;nbsp; Service Url&lt;/li&gt;&lt;li&gt;Websocket Url&lt;/li&gt;&lt;li&gt;LSS Url&lt;/li&gt;&lt;/ol&gt;" style="text;html=1;align=left;verticalAlign=middle;whiteSpace=wrap;rounded=0;fontStyle=2;fontSize=11;connectable=0;allowArrows=0;" parent="1" vertex="1">
          <mxGeometry x="1680" y="820" width="174.75" height="60" as="geometry" />
        </mxCell>
        <mxCell id="qYWw9UYQeMKu6ul-sRUe-132" value="Start Service" style="text;html=1;align=center;verticalAlign=middle;whiteSpace=wrap;rounded=0;fontStyle=1;fontSize=11;connectable=0;allowArrows=0;" parent="1" vertex="1">
          <mxGeometry x="1500" y="790" width="100" height="40" as="geometry" />
        </mxCell>
        <mxCell id="qYWw9UYQeMKu6ul-sRUe-133" value="&lt;ol&gt;&lt;li&gt;LDS Url&lt;/li&gt;&lt;li&gt;&quot;Own&quot; Service Url&lt;/li&gt;&lt;li&gt;LSS Url&lt;/li&gt;&lt;li&gt;Session ID&lt;/li&gt;&lt;/ol&gt;" style="text;html=1;align=left;verticalAlign=middle;whiteSpace=wrap;rounded=0;fontStyle=2;fontSize=11;connectable=0;allowArrows=0;" parent="1" vertex="1">
          <mxGeometry x="1490" y="820" width="132.5" height="60" as="geometry" />
        </mxCell>
        <mxCell id="qYWw9UYQeMKu6ul-sRUe-135" value="Initialize Service" style="text;html=1;align=center;verticalAlign=middle;whiteSpace=wrap;rounded=0;fontStyle=1;fontSize=11;connectable=0;allowArrows=0;" parent="1" vertex="1">
          <mxGeometry x="1360" y="790" width="130" height="40" as="geometry" />
        </mxCell>
        <mxCell id="qYWw9UYQeMKu6ul-sRUe-136" value="&lt;ul&gt;&lt;li&gt;Service Name&lt;/li&gt;&lt;li&gt;Service Type&lt;/li&gt;&lt;li&gt;LSS Url&lt;/li&gt;&lt;li&gt;Session ID&lt;/li&gt;&lt;/ul&gt;" style="text;html=1;align=left;verticalAlign=middle;whiteSpace=wrap;rounded=0;fontStyle=2;fontSize=11;connectable=0;allowArrows=0;" parent="1" vertex="1">
          <mxGeometry x="1360" y="830" width="115" height="40" as="geometry" />
        </mxCell>
        <mxCell id="qYWw9UYQeMKu6ul-sRUe-138" value="Register at Session" style="text;html=1;align=center;verticalAlign=middle;whiteSpace=wrap;rounded=0;fontStyle=1;fontSize=11;connectable=0;allowArrows=0;" parent="1" vertex="1">
          <mxGeometry x="1130" y="880" width="130" height="40" as="geometry" />
        </mxCell>
        <mxCell id="qYWw9UYQeMKu6ul-sRUe-139" value="&lt;ul&gt;&lt;li&gt;Session ID&lt;/li&gt;&lt;li&gt;Service Name&lt;/li&gt;&lt;li&gt;Service Type&lt;/li&gt;&lt;li&gt;Host&lt;/li&gt;&lt;li&gt;Port&lt;/li&gt;&lt;li&gt;StartAsRelay&lt;/li&gt;&lt;/ul&gt;" style="text;html=1;align=left;verticalAlign=middle;whiteSpace=wrap;rounded=0;fontStyle=2;fontSize=11;connectable=0;allowArrows=0;" parent="1" vertex="1">
          <mxGeometry x="1120" y="930" width="115" height="80" as="geometry" />
        </mxCell>
        <mxCell id="qYWw9UYQeMKu6ul-sRUe-141" value="&lt;ul&gt;&lt;li&gt;Service ID&lt;/li&gt;&lt;li&gt;Websocket Url (opt)&lt;/li&gt;&lt;/ul&gt;" style="text;html=1;align=left;verticalAlign=middle;whiteSpace=wrap;rounded=0;fontStyle=2;fontSize=11;connectable=0;allowArrows=0;" parent="1" vertex="1">
          <mxGeometry x="1120" y="1020" width="140" height="40" as="geometry" />
        </mxCell>
      </root>
    </mxGraphModel>
  </diagram>
</mxfile>
